Coordinates
version=1
nRows=10
nColumns=40
inDegrees=yes

Units are S.I. units (second, meters, Newtons, ...)
Angles are in degrees.

endheader
time	pelvis_tilt	pelvis_list	pelvis_rotation	pelvis_tx	pelvis_ty	pelvis_tz	hip_flexion_r	hip_adduction_r	hip_rotation_r	knee_angle_r	knee_angle_r_beta	ankle_angle_r	subtalar_angle_r	mtp_angle_r	hip_flexion_l	hip_adduction_l	hip_rotation_l	knee_angle_l	knee_angle_l_beta	ankle_angle_l	subtalar_angle_l	mtp_angle_l	lumbar_extension	lumbar_bending	lumbar_rotation	arm_flex_r	arm_add_r	arm_rot_r	elbow_flex_r	pro_sup_r	wrist_flex_r	wrist_dev_r	arm_flex_l	arm_add_l	arm_rot_l	elbow_flex_l	pro_sup_l	wrist_flex_l	wrist_dev_l
     24.50000000	     -3.13269020	     -3.01971449	      1.12810396	      1.10984122	      0.93429062	      0.40803705	     31.62549160	     -9.13950930	     -7.55576883	     71.68274160	     71.68274160	      4.28887173	    -14.98248646	      0.82613077	     14.01094119	     -3.40209114	    -14.38417583	     19.96619986	     19.96619986	     12.40636562	     -5.02057446	     -5.23395170	     -9.46027519	      4.51556835	     -0.91367187	      1.27777583	    -12.76213106	    -11.05588083	     55.64469663	     45.63101740	      0.00000000	      0.00000000	     14.08053639	    -11.96820946	      4.61589917	     31.39777978	     45.50326662	      0.00000000	      0.00000000
     24.51135714	     -2.84947201	     -2.85268826	      1.04261962	      1.10915266	      0.93491600	      0.40725879	     32.45806520	     -9.34227434	     -7.35360592	     70.19786333	     70.19786333	      4.15762866	    -14.98869481	      0.85238121	     12.58589277	     -3.07805463	    -14.57328526	     19.07272760	     19.07272760	     12.72854125	     -4.58544576	     -5.35317319	     -9.72456402	      4.42136245	     -0.56121444	     -0.63645392	    -12.88709153	    -11.08639744	     52.49285662	     45.73368242	      0.00000000	      0.00000000	     16.39662244	    -12.08831115	      4.63099755	     31.70457525	     45.54809926	      0.00000000	      0.00000000
     24.52271429	     -2.65174163	     -2.72941400	      0.99587871	      1.10838028	      0.93515094	      0.40652513	     33.26798313	     -9.47939276	     -7.19896644	     68.55966618	     68.55966618	      3.90903293	    -15.11964616	      0.86069512	     11.49469943	     -2.86530815	    -14.77559859	     18.60853202	     18.60853202	     13.09151780	     -4.24486027	     -5.68920922	     -9.84760928	      4.36227694	     -0.28636402	     -2.18889663	    -12.92215678	    -11.39749168	     48.37391300	     45.88597167	      0.00000000	      0.00000000	     18.61450235	    -12.22325876	      4.69271758	     32.02741768	     45.58619365	      0.00000000	      0.00000000
     24.53407143	     -2.51883947	     -2.62646771	      1.02690416	      1.10757208	      0.93525339	      0.40582533	     33.98135963	     -9.61409729	     -7.15651802	     66.68900801	     66.68900801	      3.50300716	    -15.30591271	      0.72436704	     10.51840208	     -2.67669475	    -14.88783252	     18.17331714	     18.17331714	     13.36029739	     -3.87016336	     -6.23837316	     -9.82732176	      4.28758019	     -0.89803482	     -1.99892536	    -12.32218703	    -12.85661480	     41.37877786	     46.20070434	      0.00000000	      0.00000000	     20.46056854	    -12.74775339	      4.89911920	     31.77337661	     45.61791441	      0.00000000	      0.00000000
     24.54542857	     -2.35559056	     -2.50525281	      1.00312977	      1.10686115	      0.93531477	      0.40525076	     34.54067459	     -9.70303384	     -7.07948997	     64.62264077	     64.62264077	      3.22464358	    -15.44476809	      1.07957962	      9.45209177	     -2.45822486	    -15.03505924	     17.64352153	     17.64352153	     13.70372602	     -3.48971885	     -6.49342373	     -9.92726574	      4.23575895	     -0.96981455	     -2.83574759	    -12.12561562	    -14.10930543	     36.78142029	     46.41442021	      0.00000000	      0.00000000	     22.07652548	    -13.10225995	      4.72708153	     32.87471397	     45.69745387	      0.00000000	      0.00000000
     24.55678571	     -2.18425526	     -2.30421943	      0.95612157	      1.10617651	      0.93521400	      0.40476144	     34.99260456	     -9.84730321	     -6.99263366	     62.37216324	     62.37216324	      2.94532161	    -15.55215435	      1.56742200	      8.39434409	     -2.16033522	    -15.19111296	     17.14941116	     17.14941116	     14.08616031	     -3.11567275	     -6.63812387	    -10.11691103	      4.09738904	     -0.77106304	     -4.53862562	    -12.19569213	    -14.39256049	     34.35482738	     46.50826528	      0.00000000	      0.00000000	     23.78049944	    -13.28222330	      4.53573739	     34.00262959	     45.75764337	      0.00000000	      0.00000000
     24.56814286	     -2.09450220	     -2.12434334	      0.90213967	      1.10553175	      0.93495260	      0.40441404	     35.36197541	     -9.96573606	     -7.02242523	     59.83253310	     59.83253310	      2.68034657	    -15.60106182	      2.04878205	      7.43230029	     -1.90736625	    -15.44494181	     16.66042475	     16.66042475	     14.41769101	     -2.64216396	     -6.98292575	    -10.10564740	      3.97812344	     -0.92178655	     -4.94481245	    -12.12452377	    -15.41244971	     29.51757463	     46.75477040	      0.00000000	      0.00000000	     25.08761698	    -13.68195829	      4.19701062	     35.29583477	     45.83738988	      0.00000000	      0.00000000
     24.57950000	     -1.95898723	     -1.99686011	      0.84593980	      1.10496543	      0.93471584	      0.40422770	     35.50759266	     -9.94267751	     -7.06979489	     56.98472731	     56.98472731	      2.37193692	    -15.77700037	      2.59068890	      6.36980183	     -1.68074521	    -15.53377923	     16.07317476	     16.07317476	     14.76518077	     -2.32226711	     -7.04275379	    -10.22943284	      3.95625352	     -0.87529267	     -6.54944242	    -12.22729143	    -15.65875813	     27.92924659	     46.82459884	      0.00000000	      0.00000000	     26.47464291	    -13.90911944	      3.93947577	     36.48504600	     45.89499626	      0.00000000	      0.00000000
     24.59085714	     -1.94422392	     -1.76852853	      0.78592588	      1.10444294	      0.93416435	      0.40420393	     35.63157525	    -10.03297617	     -7.23797353	     53.87643520	     53.87643520	      1.92007575	    -15.83039274	      2.40615764	      5.45121375	     -1.37246216	    -15.77247773	     15.51748968	     15.51748968	     15.00783542	     -1.89332776	     -7.47740678	    -10.17036883	      3.74800572	     -1.33142610	     -6.54648317	    -12.15385923	    -17.44254467	     23.20333266	     47.17582998	      0.00000000	      0.00000000	     26.97198067	    -14.55836775	      2.92007455	     39.21573283	     46.04696626	      0.00000000	      0.00000000
     24.60221429	     -1.95336823	     -1.62462246	      0.72292282	      1.10400613	      0.93354878	      0.40430012	     35.59469983	     -9.99607545	     -7.54086110	     50.49170201	     50.49170201	      1.70940702	    -15.67279579	      2.90174034	      4.54994867	     -1.14132671	    -15.86735053	     14.95183432	     14.95183432	     15.35465388	     -1.58337428	     -7.54829231	    -10.10914944	      3.68682545	     -1.16530797	     -8.24022349	    -12.29734424	    -17.63900903	     22.17081753	     47.22621642	      0.00000000	      0.00000000	     28.20660746	    -14.67169871	      2.66098552	     40.39837278	     46.09964313	      0.00000000	      0.00000000
